<?xml version="1.0" encoding="utf-8"?>
<!-- Generator: Adobe Illustrator 27.5.0, SVG Export Plug-In . SVG Version: 6.00 Build 0)  -->
<svg version="1.1" xmlns="http://www.w3.org/2000/svg" xmlns:xlink="http://www.w3.org/1999/xlink" x="0px" y="0px"
	 viewBox="0 0 700 500" style="enable-background:new 0 0 700 500;" xml:space="preserve">
<g id="BACKGROUND">
	<rect style="fill:#EEE6FD;" width="700" height="500"/>
</g>
<g id="OBJECTS">
	<g>
		<g>
			<path style="fill:#D2BFFE;" d="M163.176,338.822c-0.027-9.136,2.064-14.358,5.501-22.902c1.265-3.143,2.698-6.708,4.267-11.065
				c6.053-16.811-4.395-28.807-4.501-28.926c-0.292-0.329-0.767-0.425-1.165-0.242c-0.399,0.185-0.631,0.609-0.571,1.046
				c0.012,0.086,1.106,8.741-5.425,21.687c-5.675,11.245-2.219,31.197-0.687,38.427c-2.185-1.578-4.452-3.04-6.663-4.465
				c-2.259-1.456-4.596-2.962-6.793-4.562c-3.879-2.824-7.419-6.078-10.603-9.657c0.509-6.724,8.109-19.176,20.978-34.321
				c11.9-14.003,2.385-41.219,1.974-42.37c-0.166-0.464-0.649-0.738-1.129-0.646c-0.484,0.092-0.829,0.524-0.813,1.017
				c0.285,8.38-6.61,24.65-19.414,45.812c-6.543,10.814-6.073,20.794-4.945,26.452c-5.541-7.249-9.718-15.574-12.291-24.359
				c0.949-6.61,8.461-19.45,21.221-36.244c10.64-14.003,1.587-35.211,1.197-36.107c-0.192-0.441-0.67-0.683-1.139-0.575
				c-0.469,0.107-0.795,0.533-0.777,1.013c0.007,0.181,0.55,18.279-11.075,32.304c-8.068,9.734-10.487,23.668-11.194,32.207
				c-1.24-6.696-1.556-13.547-0.846-20.295c1.53-4.76,6.357-21.661,4.836-41.285c-1.78-22.954-6.08-41.958-6.123-42.147
				c-0.102-0.443-0.489-0.763-0.943-0.777c-0.458-0.021-0.862,0.28-0.991,0.716c-0.081,0.275-8.106,27.71-5.956,47.597
				c2.137,19.768,6.776,36.983,6.823,37.154c0.038,0.142,0.114,0.262,0.204,0.37c-0.605,7.737,0.081,15.573,1.922,23.147
				c-3.565-3.612-10.381-11.567-15.83-24.176c-7.909-18.3-33.504-37.664-34.589-38.48c-0.362-0.271-0.861-0.266-1.216,0.012
				c-0.356,0.278-0.481,0.761-0.305,1.177c0.093,0.222,9.52,22.39,22.871,42.894c12.241,18.799,26.884,22.041,30.14,22.542
				c2.548,8.49,6.553,16.553,11.813,23.655c-7.982-4.69-23.973-12.578-39.065-10.992c-20.262,2.121-32.137,0.742-32.253,0.727
				c-0.445-0.051-0.865,0.191-1.04,0.6c-0.175,0.409-0.059,0.884,0.284,1.166c0.987,0.812,24.067,19.617,41.905,19.617
				c0.249,0,0.501-0.004,0.749-0.011c15.797-0.479,30.566-4.896,33.687-5.883c3.237,3.616,6.828,6.908,10.758,9.769
				c2.243,1.633,4.604,3.154,6.887,4.625c0.741,0.478,1.488,0.96,2.235,1.448c-7.282-1.978-19.188-3.25-33.072,2.863
				c-21.619,9.516-39.04,0.136-39.213,0.04c-0.433-0.238-0.978-0.126-1.279,0.269c-0.301,0.393-0.268,0.948,0.078,1.304
				c0.159,0.164,13.708,13.826,33.53,13.825c3.655-0.001,7.526-0.466,11.563-1.565c12.245-3.336,17.713-6.676,21.706-9.114
				c4.225-2.579,6.384-3.888,13.359-2.89c5.577,4.451,9.1,9.259,10.456,14.296c0.121,0.446,0.524,0.74,0.965,0.74
				c0.086,0,0.173-0.011,0.26-0.034c0.534-0.144,0.85-0.692,0.706-1.226C172.688,348.614,168.989,343.506,163.176,338.822z"/>
			<path style="fill:#D2BFFE;" d="M407.156,241.998l1.034-1.031c2.997-2.987,5.854-6.111,8.618-9.132
				c0.314-0.344,0.641-0.697,0.959-1.044c23.62-12.649,39.042-59.453,39.688-61.445c0.17-0.522-0.113-1.083-0.634-1.257
				c-0.521-0.172-1.084,0.104-1.263,0.623c-1.138,3.307-3.495,6.301-6.017,9.332c-2.478,2.978-5.294,5.751-8.019,8.431
				c-4.039,3.976-8.217,8.087-11.451,13.01c-5.791,8.816-10.568,19.188-13.828,30.006c-0.302,0.33-0.613,0.666-0.912,0.993
				c-2.748,3.004-5.59,6.111-8.555,9.066l-1.034,1.031c-2.474,2.466-4.986,4.974-7.491,7.511c2.6-6.373,6.021-17.457,3.778-27.764
				c-3.2-14.7,0.646-28.92,0.685-29.062c0.123-0.444-0.074-0.915-0.477-1.14c-0.402-0.224-0.906-0.147-1.22,0.192
				c-0.41,0.441-10.038,11.039-8.512,30.301c0.302,3.805,0.579,7.078,0.821,9.94c0.954,11.277,1.357,16.065,0.63,21.93
				c-1.445,1.499-2.881,3.006-4.293,4.524c-3.971,4.268-8.459,9.328-12.883,15.074c1.171-5.73,2.646-15.97,1.382-27.259
				c-1.867-16.663,3.301-28.719,3.354-28.838c0.192-0.439,0.046-0.953-0.349-1.225c-0.395-0.271-0.928-0.226-1.269,0.11
				c-0.398,0.392-9.77,9.796-9.77,26.358c0,9.977,1.291,18.263,2.328,24.92c0.622,3.994,1.157,7.455,1.206,10.121
				c-5.313,7.387-10.323,15.758-13.992,24.934c0.052-6.007-0.472-15.638-3.481-25.749c-4.782-16.071-1.828-28.85-1.798-28.978
				c0.111-0.466-0.124-0.946-0.56-1.144c-0.435-0.196-0.952-0.058-1.229,0.333c-0.323,0.456-7.883,11.369-4.955,27.67
				c1.764,9.821,4.5,17.748,6.699,24.117c1.371,3.971,2.555,7.4,3.042,10.06c0.002,0.009,0.008,0.017,0.01,0.026
				c0.001,0.003,0.002,0.006,0.003,0.009c-0.58,1.838-1.108,3.702-1.563,5.595c-0.129,0.537,0.202,1.077,0.739,1.206
				c0.078,0.018,0.157,0.027,0.234,0.027c0.451,0,0.861-0.308,0.972-0.767c0.408-1.698,0.892-3.394,1.415-5.089
				c1.983,0.376,6.552,1.107,12.153,1.107c5.121,0,11.096-0.612,16.718-2.669c13.7-5.014,20.173-18.115,20.442-18.671
				c0.215-0.444,0.073-0.979-0.334-1.26c-0.405-0.278-0.956-0.222-1.295,0.14c-0.054,0.057-5.534,5.742-19.327,7.548
				c-11.012,1.442-22.238,7.353-27.162,10.217c3.183-8.898,8.007-17.832,14.66-27.117c2.665,1.036,11.731,4.243,21.793,4.243
				c2.343,0,4.74-0.174,7.121-0.59c14.371-2.512,23.059-14.263,23.421-14.762c0.291-0.399,0.246-0.951-0.106-1.299
				c-0.35-0.348-0.902-0.385-1.3-0.092c-0.063,0.047-6.458,4.666-20.355,4.011c-10.776-0.51-22.491,3.088-28.062,5.081
				c3.944-5.207,8.44-10.532,13.562-16.037c1.318-1.416,2.655-2.825,4.004-4.227c1.537,0.676,5.528,2.13,11.453,2.13
				c4.9,0,11.117-0.996,18.348-4.252c18.015-8.115,24.691-17.102,24.967-17.481c0.277-0.381,0.25-0.904-0.064-1.255
				c-0.315-0.352-0.832-0.434-1.241-0.201c-0.064,0.037-6.527,3.676-20.444,6.754c-9.9,2.189-22.233,7.192-28.88,10.06
				C401.904,247.234,404.552,244.594,407.156,241.998z"/>
			<path style="fill:#D2BFFE;" d="M300.54,176.397c-3.086-6.902-9.96-11.521-17.204-13.686c-7.244-2.165-14.926-2.211-22.486-2.239
				c4.147-5.027,10.833-6.971,16.894-9.365c6.061-2.395,12.453-6.213,13.977-12.55c0.968-4.024-0.268-8.213-1.493-12.165
				c-1.81-5.84-4.136-12.303-9.642-14.961c-5.623-2.715-12.263-0.361-18.043,2.001c4.557-6.062,8.84-12.33,12.833-18.777
				c1.206-1.947,2.431-4.124,2.084-6.387c-0.497-3.238-3.869-5.086-6.851-6.442c-5.577-2.537-11.972-5.103-17.622-2.734
				c-4.949,2.075-7.718,7.343-9.45,12.422c-1.732,5.079-2.922,10.536-6.295,14.709c-2.51-9.377-6.008-18.49-10.416-27.138
				c-1.6-3.139-3.557-6.436-6.818-7.769c-4.221-1.725-8.936,0.44-12.974,2.559c-4.359,2.287-8.973,4.822-11.26,9.181
				c-2.765,5.269-1.348,11.774,1.113,17.191c2.461,5.418,5.916,10.457,7.295,16.245c-7.313-2.488-14.626-4.975-21.939-7.463
				c-2.22-0.755-4.578-1.52-6.868-1.011c-3.942,0.876-6.085,5.035-7.698,8.737c-2.54,5.83-5.088,12.554-2.407,18.321
				c2.747,5.911,9.923,8.293,16.42,8.814c6.498,0.521,13.272-0.148,19.323,2.276c-8.567,1.84-17.494,3.848-24.258,9.417
				c-6.765,5.57-10.501,15.874-5.921,23.345c3.2,5.219,9.622,7.754,15.743,7.878c6.121,0.124,12.079-1.783,17.904-3.669
				c-8.32,5.605-13.627,15.434-13.75,25.465c-0.124,10.031,4.94,19.987,13.12,25.796c21.924,15.569,51.825-5.743,71.344-16.125
				c7.959-4.233,15.828-9.182,21.202-16.42C301.769,194.615,304.22,184.627,300.54,176.397z M245.215,214.13
				c-4.333-24.348-4.422-48.811-15.796-71.362c-8.671-17.191-21.137-36.139-17.809-56.304c0.314-1.903,3.204-1.091,2.893,0.798
				c-3.49,21.147,11.559,40.843,19.955,59.025c9.766,21.148,9.641,44.515,13.65,67.047
				C248.445,215.223,245.553,216.027,245.215,214.13z"/>
			<path style="fill:#D2BFFE;" d="M584.21,134.185c0.123-2.095-0.81-3.855-2.771-5.232c-2.036-1.428-4.252-1.786-6.583-1.066
				c-10.568,3.262-20.39,28.562-21.174,30.621c-5.716,6.922-10.207,14.589-13.815,21.912c0.353-8.926,0.422-29.548-6.108-34.29
				c-1.699-1.233-3.684-1.397-5.901-0.488c-2.3,0.944-3.796,2.616-4.448,4.968c-2.922,10.551,12.74,32.142,14.331,34.297
				c-1.185,2.589-2.269,5.105-3.26,7.489c-1.88,4.519-3.674,9.151-5.412,13.649c-1.367-8.84-5.25-29.063-12.562-32.463
				c-1.903-0.885-3.884-0.667-5.885,0.652c-2.076,1.367-3.226,3.295-3.414,5.729c-0.801,10.326,16.605,27.153,20.16,30.474
				c-2.552,6.565-5.221,13.217-8.254,19.648c-1.162-8.309-4.863-29.863-12.395-33.447c-1.895-0.902-3.876-0.7-5.89,0.599
				c-2.089,1.349-3.255,3.266-3.466,5.698c-0.903,10.429,16.735,27.668,19.995,30.758c-0.174,0.347-0.341,0.698-0.517,1.043
				c-3.633,7.094-7.8,13.814-12.359,20.241c-0.521-8.211-2.59-30.314-9.896-34.481c-1.824-1.04-3.816-0.984-5.919,0.162
				c-2.183,1.19-3.487,3.015-3.878,5.425c-1.642,10.134,14.023,28.128,17.478,31.951c-5.427,7.342-11.356,14.306-17.592,21.003
				c0.055-7.962-0.424-30.68-7.521-35.397c-1.749-1.163-3.739-1.243-5.916-0.243c-2.259,1.038-3.685,2.77-4.238,5.148
				c-2.327,9.995,12.059,29,15.254,33.064c-5.676,5.964-11.576,11.726-17.55,17.373c1.299-8.611,3.746-29.641-2.326-35.138
				c-1.556-1.409-3.512-1.785-5.815-1.12c-2.388,0.691-4.056,2.192-4.956,4.461c-3.719,9.364,7.199,29.706,10.016,34.695
				c-3.992,3.734-8.005,7.424-11.998,11.094c-0.406,0.374-0.434,1.007-0.06,1.413c0.197,0.215,0.467,0.323,0.736,0.323
				c0.242,0,0.484-0.087,0.677-0.264c3.901-3.585,7.885-7.249,11.893-11.003c1.222,0.365,17.041,5.03,28.535,5.03
				c4.369,0,8.112-0.675,10.188-2.516c1.57-1.393,2.158-3.297,1.748-5.657c-0.426-2.449-1.735-4.272-3.893-5.415
				c-7.766-4.117-25.057,1.928-32.844,5.037c5.794-5.499,11.595-11.197,17.222-17.133c2.33,0.459,13.587,2.564,23.546,2.564
				c6.419,0,12.297-0.876,14.89-3.633c1.438-1.529,1.852-3.479,1.229-5.793c-0.646-2.4-2.115-4.097-4.366-5.04
				c-7.721-3.236-23.217,3.493-31.129,7.422c5.602-6.139,10.972-12.537,15.929-19.233c1.23,0.083,5.158,0.32,10.079,0.32
				c10.018,0,24.143-0.982,27.96-6.242c1.233-1.698,1.396-3.684,0.486-5.9c-0.944-2.3-2.616-3.796-4.97-4.447
				c-8.114-2.248-22.727,6.48-30.043,11.369c4.115-5.935,7.888-12.099,11.181-18.529c0.201-0.393,0.391-0.793,0.589-1.188
				c1.247,0.06,3.898,0.164,7.261,0.164c10,0,26.254-0.924,30.306-6.692c1.206-1.718,1.339-3.706,0.395-5.908
				c-0.98-2.285-2.675-3.755-5.037-4.37c-8.544-2.221-24.03,7.715-30.856,12.523c2.898-6.22,5.464-12.613,7.918-18.925
				c4.36-0.076,32.287-0.882,37.239-9.056c1.088-1.795,1.086-3.788-0.005-5.921c-1.133-2.213-2.923-3.565-5.321-4.019
				c-8.843-1.674-24.061,9.78-30.324,14.896c1.779-4.606,3.619-9.364,5.542-13.987c1.013-2.435,2.124-5.009,3.341-7.658
				c1.353,0.061,3.838,0.149,6.922,0.149c10,0,26.254-0.924,30.306-6.692c1.206-1.718,1.339-3.705,0.395-5.908
				c-0.979-2.285-2.675-3.755-5.037-4.37c-8.349-2.171-23.327,7.269-30.373,12.186c3.522-7.091,7.876-14.475,13.38-21.132
				C558.024,158.229,583.638,143.98,584.21,134.185z"/>
			<path style="fill:#D2BFFE;" d="M640.244,270.894c-0.986-3.472-5.471-6.404-8.758-7.316c-2.889-0.802-7.474-1.685-6.501-5.835
				c0.477-2.032,2.189-3.538,3.975-4.619c1.936-1.171,4.318-2.339,4.707-4.568c0.283-1.621-0.644-3.181-1.532-4.567
				c-2.29-3.572-4.717-7.277-8.389-9.403c-3.162-1.831-7.036-1.96-10.18-0.091c-2.8,1.664-4.849,6.202-8.414,6.122
				c-3.378-0.076-4.833-4.234-7.313-6.527c-4.885-4.516-14.483-1.371-19.614,1.258c-1.939,0.993-12.286,7.24-6.186,8.988
				c5.652,1.619,11.181,2.068,16.669,4.573c0.755,0.344,1.554,0.756,1.922,1.499c0.696,1.402-0.667,3.109-2.204,3.406
				c-1.537,0.297-3.081-0.332-4.551-0.872c-7.21-2.653-15.331-3.381-22.575-0.821c-4.646,1.642-10.924,5.506-12.875,10.306
				c-1.276,3.14-0.271,5.484,3.131,5.436c5.089-0.072,10.003,0.235,14.94,1.588c1.753,0.481,5.92,2.971,3.547,5.206
				c-1.248,1.176-5.851,1.185-7.475,1.186c-5.945,0.002-12.729-3.057-18.306,0.192c-1.926,1.122-3.368,2.903-4.699,4.692
				c-4.064,5.463-7.52,11.377-10.283,17.6c-1.282,2.886-2.562,6.234-1.357,9.295c1.698,4.315,6.34,7.013,9.914,9.622
				c4.012,2.928,8.146,5.691,12.397,8.259c0.868,0.524,1.741,1.04,2.618,1.548c7.831,4.531,16.056,8.397,24.612,11.345
				c6.201,2.136,12.961,3.84,19.25,1.977c4.676-1.386,8.499-4.578,11.993-7.855c3.632-3.408,5.52-7.641,8.174-11.862
				c-3.981-1.131-7.962-2.263-11.943-3.394c-1.726-0.49-3.79-1.376-3.907-3.166c-0.108-1.656,1.6-2.834,3.182-3.335
				c4.313-1.363,9.319-0.247,12.644,2.821c1.006,0.928,1.983,2.08,3.34,2.257c2.038,0.267,3.568-1.745,4.622-3.509
				c2.461-4.12,5.016-8.881,3.643-13.479c-1.333-4.461-5.828-7.023-9.489-9.899c-0.985-0.774-2.023-1.824-1.854-3.066
				c0.232-1.694,2.42-2.242,4.127-2.136c3.155,0.195,6.252,1.259,8.86,3.044c1.363,0.933,2.812,2.12,4.446,1.879
				c1.753-0.258,2.821-2.037,3.492-3.677C639.613,281.158,641.425,275.052,640.244,270.894z M623.143,246.859
				c-6.109,3.078-10.436,8.934-14.971,13.891c-5.334,5.831-10.617,11.484-15.264,17.901c-4.573,6.315-8.933,12.779-13.464,19.124
				c-4.056,5.681-9.804,11.532-11.896,18.303c-0.569,1.842-3.464,1.051-2.893-0.797c2.201-7.124,7.931-13.042,12.198-19.019
				c4.892-6.851,9.586-13.842,14.562-20.633c4.631-6.319,9.96-11.91,15.249-17.669c4.556-4.961,8.833-10.601,14.964-13.69
				C623.35,243.401,624.867,245.99,623.143,246.859z"/>
		</g>
		<g>
			<path style="fill:#202960;" d="M357.057,251.66c-0.539-7.892-3.792-15.768-2.099-23.495
				c2.676-12.212,16.845-20.004,17.731-32.473c0.651-9.165-6.208-17.05-8.513-25.944c-2.65-10.223,0.874-21.116-0.706-31.558
				c-2.154-14.239-14.631-24.696-26.894-30.927c-12.785-6.496-27.795-8.772-41.856-5.719c-22.165,4.812-40.992,22.638-47.005,44.509
				c-2.124,7.725-3.049,16.406-8.757,22.028c-6.541,6.443-18.147,7.465-22.018,15.79c-4.463,9.601,5.132,20.888,2.243,31.074
				c-3.455,12.184-18.387,14.341-26.714,22.033c-7.879,7.279-10.181,19.923-5.372,29.511c3.284,6.548,9.371,11.389,16.085,14.317
				s14.06,4.102,21.356,4.751c12.562,1.117,25.255,0.753,37.731-1.084c9.803-1.443,19.804-3.79,29.496-1.732
				c12.179,2.586,20.971,10.09,33.869,7.138C342.926,285.923,358.324,270.224,357.057,251.66z"/>
			<path style="fill:#1A214D;" d="M325.636,289.879c1.941-0.444,3.855-1.044,5.727-1.771c5.955-8.973,9.745-19.47,10.758-30.451
				c1.004-10.881-0.821-22.172-4.195-32.523c-1.884-5.78-4.436-11.709-8.44-16.365c-4.236-4.926-9.425-6.036-15.683-5.518
				c-10.79,0.892-19.874,1.711-29.314-4.514c-5.319-3.508-9.838-9.041-16.222-10.492c-7.157-1.626-14.818,1.713-19.84,6.771
				c-4.77,4.804-6.276,11.148-6.531,17.736c-0.147,3.804-0.057,7.561-1.95,11.01c-3.325,6.06-10.431,7.802-16.818,8.337
				c-7.988,0.67-16.949-1.386-24.787,0.671c-2.133,1.258-4.146,2.613-5.872,4.208c-7.879,7.279-10.181,19.923-5.372,29.511
				c3.284,6.548,9.371,11.389,16.085,14.317c6.715,2.928,14.06,4.102,21.356,4.751c12.562,1.117,25.255,0.753,37.731-1.084
				c9.803-1.443,19.804-3.79,29.496-1.732C303.946,285.328,312.739,292.831,325.636,289.879z"/>
			<path style="fill:#7660DB;" d="M209.356,270.316c6.63-1.763,13.295-3.396,19.989-4.896c12.727-2.852,25.566-5.252,38.475-7.116
				c5.159-0.745,11.201,0.967,16.29,1.999c6.391,1.295,12.687,3.017,18.951,4.819c9.722,2.797,19.464,5.554,29.027,8.864
				c4.781,1.655,9.515,3.447,14.165,5.443c4.605,1.977,7.708,4.129,10.276,8.577c2.497,4.325,4.094,9.088,5.425,13.881
				c1.286,4.631,3.117,9.012,4.32,13.687c9.104,35.368,15.096,71.352,16.306,107.889c-63.971,1.778-128.789-0.784-192.442-7.4
				c-2.087-2.498-4.286-4.9-6.469-7.313c-1.806-1.995-4.649-4.27-5.73-6.768c-0.888-2.052-0.628-5-0.791-7.188
				c-0.251-3.364-0.409-6.735-0.477-10.108c-0.269-13.492,0.925-27.012,3.559-40.247c3.479-17.482,5.016-35.43,8.161-53.011
				c0.759-4.245,1.333-12.28,5.035-15.014C197.854,273.139,204.132,271.705,209.356,270.316z"/>
			<path style="fill:#5745A2;" d="M221.399,404.691c-6.708-15.944,0.791-30.256,5.892-45.201
				c6.697-19.622,12.684-44.974,4.572-65.119c-1.384-3.437-3.507-6.579-6.554-8.748c-8.509-6.056-25.645-0.198-35.788-1.001
				c-0.515,2.487-0.807,4.991-1.131,6.803c-3.145,17.581-4.682,35.529-8.161,53.011c-2.634,13.235-3.828,26.755-3.559,40.247
				c0.067,3.373,0.226,6.744,0.477,10.108c0.163,2.189-0.097,5.136,0.791,7.189c1.081,2.499,3.925,4.773,5.73,6.768
				c2.184,2.413,4.382,4.815,6.469,7.313c14.016,1.457,28.091,2.7,42.198,3.759C227.743,415.565,223.882,410.594,221.399,404.691z"
				/>
			<path style="fill:#927AFF;" d="M329.072,285.661c10.854,14.359,20.383,29.842,27.452,46.42
				c7.187,16.857,11.932,34.595,17.114,52.132c2.911,9.85,6.193,19.735,8.51,29.79c-1.849-33.292-7.556-66.119-15.874-98.43
				c-1.203-4.675-3.034-9.056-4.32-13.687c-1.331-4.793-2.928-9.555-5.425-13.881c-2.568-4.448-5.671-6.601-10.276-8.577
				c-4.649-1.996-9.384-3.788-14.165-5.443c-5.205-1.802-10.465-3.434-15.743-5.004C321.026,274.33,325.088,280.391,329.072,285.661
				z"/>
			<path style="fill:#5745A2;" d="M368.497,408.974c-7.431-6.272-12.847-15.091-17.379-23.579
				c-5.151-9.649-8.716-19.973-13.352-29.858c-2.334-4.977-4.856-9.884-7.689-14.597c-2.111-3.51-4.209-7.233-7.261-9.982
				c2.37,7.766,3.67,15.827,5.295,23.774c1.764,8.623,3.729,17.19,5.848,25.732c2.135,8.605,3.685,17.32,5.3,26.036
				c0.832,4.487,1.525,8.912,2.595,13.348c0.341,1.414,0.476,2.787,0.507,4.153c13.431,0.005,26.843-0.166,40.218-0.537
				c-0.063-1.912-0.147-3.821-0.236-5.73C377.456,415.25,372.708,412.528,368.497,408.974z"/>
			<path style="fill:#FFAA94;" d="M356.442,163.144c0.064-0.528,0.12-1.059,0.166-1.59c-4.031-2.117-7.599-5.3-10.392-8.712
				c-4.044-4.94-9.076-11.569-11.273-18.365c-0.615,0.69-1.242,1.377-1.877,2.067c-5.036,5.467-10.389,10.572-16.227,15.177
				c-8.078,6.372-18.671,12.586-29.242,15.109c-1.469,5.337-3.51,10.405-7.76,15.029c-4.045,4.4-8.932,8.449-14.382,11.187
				c-0.3,1.534-0.563,3.075-0.744,4.627c-0.482,4.128-0.552,8.321-0.146,12.459c0.439,4.472,2.548,8.752,2.357,13.255
				c-0.214,5.043-0.412,10.088-0.468,15.136c-0.029,2.624-0.02,5.248,0.045,7.871c0.052,2.084-0.387,3.98-0.411,6.058
				c-0.059,5.244,0.228,10.517,1.319,15.658c1.298,6.113,3.778,12.061,7.808,16.838c4.03,4.777,9.696,8.309,15.893,9.119
				c2.48,0.324,5.173,0.164,7.213-1.283c2.18-1.547,3.19-4.229,4.041-6.763c1.87-5.572,3.541-11.208,5.143-16.863
				c1.32-4.66,2.946-9.225,4.52-13.803c0.25-0.726,0.493-1.452,0.717-2.186c0.167-0.549,0.337-1.36,0.69-1.814
				c0.305-0.393,0.829-0.529,1.312-0.647c4.34-1.057,8.898-2.475,12.76-4.73c1.234-0.72,2.506-1.353,3.71-2.128
				c7.46-4.798,13.635-11.423,18.643-18.697c3.452-5.014,6.808-10.966,6.524-17.251c-0.242-5.366-2.064-10.32-3.294-15.477
				c-1.186-4.973,0.122-9.983,1.05-14.878C355.041,172.772,355.853,167.966,356.442,163.144z"/>
			<path style="fill:#FFC2B3;" d="M353.086,192.422c-0.883-3.704-0.383-7.428,0.313-11.11c-0.99,1.769-2.072,3.487-3.151,5.247
				c-2.249,3.668-3.719,7.255-3.694,11.607c0.025,4.454,1.557,8.696,1.138,13.183c-1.346,14.4-13.787,25.371-23.199,36.168
				c1.037-0.466,2.045-0.977,3.01-1.54c1.234-0.72,2.506-1.353,3.71-2.128c7.46-4.798,13.635-11.423,18.643-18.697
				c3.452-5.014,6.808-10.966,6.524-17.251C356.138,202.534,354.317,197.58,353.086,192.422z"/>
			<path style="fill:#F09C86;" d="M292.84,238.517c-7.333-7.324-14.102-20.254-4.417-28.419c3.066-2.585,6.577-4.333,8.419-8.094
				c2.274-4.645,0.227-8.708-0.017-13.402c-0.231-4.439,2.814-7.296,6.466-9.265c4.926-2.656,10.18-3.985,14.621-7.556
				c6.37-5.122,10.862-11.868,12.228-19.988c0.157-0.934,1.453-1.392,2.203-0.896c3.655,2.414,6.284,5.846,9.677,8.556
				c4.127,3.295,9.543,4.106,14.518,2.774c0.023-0.224,0.051-0.447,0.07-0.671c-4.031-2.117-7.599-5.3-10.392-8.712
				c-4.044-4.94-9.076-11.569-11.273-18.365c-0.615,0.69-1.242,1.377-1.877,2.067c-5.036,5.467-10.389,10.572-16.227,15.177
				c-8.078,6.372-18.671,12.586-29.242,15.109c-1.469,5.337-3.51,10.405-7.76,15.029c-4.045,4.4-8.932,8.449-14.382,11.187
				c-0.3,1.534-0.563,3.075-0.744,4.627c-0.482,4.128-0.552,8.321-0.146,12.459c0.439,4.472,2.548,8.752,2.357,13.255
				c-0.214,5.043-0.412,10.088-0.468,15.136c-0.029,2.624-0.02,5.248,0.045,7.871c0.052,2.084-0.387,3.98-0.411,6.058
				c-0.059,5.244,0.228,10.517,1.319,15.658c1.298,6.113,3.778,12.061,7.808,16.838c4.03,4.777,9.696,8.309,15.893,9.119
				c2.48,0.324,5.173,0.164,7.213-1.283c2.18-1.547,3.19-4.229,4.041-6.763c1.87-5.572,3.541-11.208,5.143-16.863
				c1.32-4.66,2.946-9.225,4.52-13.803c0.25-0.726,0.493-1.452,0.717-2.186c0.167-0.549,0.337-1.36,0.69-1.814
				c0.305-0.393,0.829-0.529,1.312-0.647c0.297-0.072,0.596-0.151,0.895-0.227C307.101,248.778,299.058,244.727,292.84,238.517z"/>
			<path style="fill:#203460;" d="M311.719,170.325c1.595-0.07,3.699-0.169,4.323-2.02c0.439-1.303-0.585-2.768-1.634-3.488
				c-2.464-1.69-6.957,0.104-9.364,1.321c-2.883,1.458-5.359,3.753-6.92,6.591c-0.394,0.717-0.72,1.651-0.227,2.304
				c0.611,0.81,1.878,0.486,2.809,0.084c1.786-0.769,2.818-1.996,4.473-2.925C307.171,171.074,309.435,170.425,311.719,170.325z"/>
			<path style="fill:#203460;" d="M315.97,185.881c0,1.87-1.516,3.387-3.387,3.387c-1.87,0-3.387-1.516-3.387-3.387
				c0-1.87,1.516-3.387,3.387-3.387C314.454,182.495,315.97,184.011,315.97,185.881z"/>
			<path style="fill:#203460;" d="M346.409,185.881c0,1.87-1.516,3.387-3.387,3.387c-1.87,0-3.387-1.516-3.387-3.387
				c0-1.87,1.516-3.387,3.387-3.387C344.893,182.495,346.409,184.011,346.409,185.881z"/>
			<path style="fill:#FF8484;" d="M318.583,198.89c-0.076,1.966-3.604,3.426-7.88,3.262c-4.276-0.164-7.682-1.891-7.607-3.857
				c0.076-1.966,3.604-3.426,7.88-3.262C315.253,195.198,318.658,196.924,318.583,198.89z"/>
			<path style="fill:#FF8484;" d="M354.7,200.512c-0.071,1.837-3.367,3.201-7.362,3.048c-3.996-0.154-7.177-1.767-7.107-3.604
				c0.07-1.837,3.367-3.201,7.362-3.048C351.589,197.062,354.771,198.676,354.7,200.512z"/>
			<g>
				<path style="fill:#FFFFFF;" d="M309.21,213.036c3.807,1.713,11.007,4.551,19.18,5.76c1.624,0.24,2.565,2.005,1.778,3.447
					c-1.679,3.076-5.58,7.77-14.198,5.341c-8.554-2.41-10.089-8.748-10.095-12.428C305.872,213.456,307.66,212.339,309.21,213.036z"
					/>
			</g>
			<path style="fill:#203460;" d="M341.426,167.369c-0.16,0.151-0.305,0.316-0.43,0.499c-0.714,1.035-0.541,2.401,0.574,3.039
				c1.014,0.581,2.302,0.378,3.413,0.542c3.075,0.454,5.922,2.103,8.45,3.836c0.361,0.248,0.725,0.508,1.144,0.635
				c0.419,0.128,0.913,0.101,1.246-0.185c0.602-0.516,0.368-1.489,0.035-2.209c-1.019-2.208-2.528-4.226-4.533-5.602
				c-2.615-1.796-5.406-2.802-8.475-1.456C342.335,166.695,341.833,166.985,341.426,167.369z"/>
			<path style="fill:#C9875A;" d="M331.815,178.857c-0.193,3.393-0.313,6.787-0.235,10.161c0.036,1.705,0.134,3.334,0.663,4.89
				c0.489,1.551,1.271,3.017,2.359,4.195c0.535,0.594,1.177,1.059,1.865,1.633c0.647,0.568,1.432,1.262,1.647,2.379
				c0.102,0.536,0.015,1.118-0.197,1.587c-0.205,0.477-0.5,0.863-0.798,1.206c-0.589,0.67-1.261,1.288-2.003,1.793
				c-2.92,2.122-7.069,2.376-10.129,0.622c-0.13-0.074-0.174-0.24-0.1-0.369c0.068-0.119,0.216-0.166,0.339-0.115
				c1.531,0.626,3.185,0.878,4.791,0.673c1.602-0.199,3.14-0.809,4.441-1.743c0.656-0.464,1.235-1.016,1.759-1.632
				c0.511-0.607,0.854-1.221,0.731-1.816c-0.087-0.598-0.626-1.177-1.236-1.702c-0.61-0.52-1.348-1.068-1.949-1.746
				c-1.21-1.337-2.054-2.952-2.562-4.646c-0.249-0.85-0.414-1.722-0.496-2.602c-0.077-0.893-0.072-1.732-0.08-2.594
				c-0.02-3.429,0.31-6.832,0.652-10.217c0.015-0.148,0.147-0.257,0.296-0.242C331.716,178.588,331.822,178.714,331.815,178.857z"/>
			<path style="fill:#FFFFFF;" d="M269.908,257.085c-0.926-0.805-2.391-1.357-3.629-1.214c-1.286,0.148-2.594,0.665-3.425,1.708
				c-0.859,1.079-1.214,2.244-1.214,3.629v0.263c0,1.228,0.805,2.64,1.707,3.425c0.926,0.805,2.391,1.357,3.629,1.214
				c1.286-0.148,2.594-0.665,3.425-1.707c0.86-1.079,1.214-2.244,1.214-3.629v-0.263C271.615,259.282,270.81,257.87,269.908,257.085
				z"/>
			<path style="fill:#FFFFFF;" d="M266.805,267.458c-6.438,0-5.712,9.975,0.698,9.975
				C273.941,277.434,273.215,267.458,266.805,267.458z"/>
			<path style="fill:#FFFFFF;" d="M271.019,279.309c-6.438,0-5.712,9.976,0.698,9.976
				C278.154,289.284,277.429,279.309,271.019,279.309z"/>
			<path style="fill:#FFFFFF;" d="M280.499,287.736c-6.438,0-5.713,9.976,0.698,9.976
				C287.635,297.711,286.909,287.736,280.499,287.736z"/>
			<path style="fill:#FFFFFF;" d="M292.613,290.896c-6.438,0-5.712,9.976,0.698,9.976
				C299.749,300.872,299.023,290.896,292.613,290.896z"/>
			<path style="fill:#FFFFFF;" d="M302.883,285.102c-6.438,0-5.712,9.976,0.698,9.976
				C310.019,295.078,309.294,285.102,302.883,285.102z"/>
			<path style="fill:#FFFFFF;" d="M307.097,273.515c-6.438,0-5.712,9.976,0.698,9.976
				C314.233,283.491,313.507,273.515,307.097,273.515z"/>
			<path style="fill:#FFFFFF;" d="M310.257,261.138c-6.438,0-5.713,9.976,0.698,9.976
				C317.393,271.114,316.667,261.138,310.257,261.138z"/>
			<g>
				<g>
					<g>
						<path style="fill:#FFFFFF;" d="M312.023,101.538c-16.69,2.741-31.47,13.746-41.072,27.42
							c-10.308,14.68-14.453,33.031-14.399,50.969c3.345-1.797,6.767-3.054,10.488-3.809c1.704-11.943,3.84-24.333,9.486-34.995
							c9.324-17.608,28.657-32.735,49.205-32.824c9.103-0.04,19.875,2.456,26.326,9.298c1.049,1.113,1.989,2.328,2.798,3.626
							c-0.146-0.234-0.135-0.9-0.244-1.214c-0.154-0.445-0.312-0.893-0.47-1.338c-0.289-0.812-0.621-1.609-0.998-2.384
							c-0.72-1.486-1.602-2.893-2.626-4.188c-2.002-2.533-4.532-4.606-7.324-6.214c-5.832-3.358-12.667-4.77-19.335-5.053
							C319.905,100.664,315.927,100.897,312.023,101.538z"/>
					</g>
					<g>
						<path style="fill:#F3F2FC;" d="M275.468,129.935c-2.755,1.568-5.61,3.301-8.38,5.22
							c-7.486,13.479-10.582,29.277-10.535,44.771c3.345-1.797,6.767-3.054,10.488-3.809c1.704-11.943,3.84-24.333,9.486-34.995
							c3.221-6.082,7.637-11.868,12.884-16.84C284.554,125.508,279.958,127.38,275.468,129.935z"/>
					</g>
					<g>
						<path style="fill:#E6E4F5;" d="M269.098,151.632c-3.595,1.935-7.069,4.022-10.356,6.366
							c-1.519,7.193-2.212,14.594-2.19,21.929c3.345-1.797,6.767-3.054,10.488-3.809c1.266-8.877,2.775-17.999,5.783-26.477
							C271.565,150.303,270.322,150.972,269.098,151.632z"/>
					</g>
				</g>
				<g>
					<g>
						<path style="fill:#706AA6;" d="M304.115,237.848c-0.11,0-0.221-0.009-0.332-0.028c-6.591-1.102-13.407-2.242-19.913-4.51
							c-7.464-2.602-13.409-6.354-17.669-11.151c-5.105-5.75-7.655-13.234-6.819-20.021c0.135-1.097,1.141-1.88,2.229-1.741
							c1.097,0.135,1.876,1.133,1.741,2.229c-0.697,5.664,1.486,11.974,5.84,16.877c3.802,4.281,9.183,7.656,15.995,10.03
							c6.185,2.156,12.83,3.267,19.257,4.342c1.089,0.182,1.825,1.213,1.642,2.303C305.921,237.155,305.074,237.848,304.115,237.848
							z"/>
						<path style="fill:#5C5694;" d="M268.456,218.634c-3.862-4.766-5.763-10.673-5.106-16.008c0.135-1.096-0.644-2.094-1.741-2.229
							c-1.088-0.139-2.094,0.644-2.229,1.741c-0.664,5.395,0.816,11.227,4.013,16.282
							C265.076,218.695,266.806,218.757,268.456,218.634z"/>
						<path style="fill:#4A4380;" d="M264.881,212.657c-1.373-3.297-1.932-6.771-1.53-10.032c0.135-1.096-0.644-2.094-1.741-2.229
							c-1.088-0.139-2.094,0.644-2.229,1.741c-0.367,2.98-0.058,6.091,0.812,9.134C261.756,211.731,263.292,212.339,264.881,212.657
							z"/>
						<path style="fill:#5C5694;" d="M304.442,233.874c-2.796-0.468-5.633-0.948-8.457-1.512c-0.241,1.188-0.481,2.377-0.853,3.538
							c-0.037,0.117-0.081,0.231-0.12,0.348c2.936,0.591,5.874,1.088,8.769,1.572c0.112,0.019,0.223,0.028,0.332,0.028
							c0.96,0,1.807-0.693,1.97-1.671C306.267,235.087,305.532,234.057,304.442,233.874z"/>
					</g>
					<g>
						<path style="fill:#203460;" d="M312.69,231.983l-7.56-1.038c-1.774-0.244-3.41,0.997-3.654,2.772l-0.376,2.74
							c-0.244,1.775,0.997,3.411,2.772,3.654l7.56,1.038c1.774,0.244,3.41-0.997,3.654-2.772l0.376-2.74
							C315.706,233.862,314.465,232.226,312.69,231.983z"/>
						<path style="fill:#192A52;" d="M309.74,238.284c-3.408-1.261-5.484-4.001-5.658-7.298c-1.328,0.255-2.412,1.316-2.606,2.73
							l-0.376,2.74c-0.244,1.775,0.997,3.411,2.772,3.654l7.56,1.038c1.607,0.221,3.089-0.782,3.538-2.29
							C313.246,239.083,311.467,238.923,309.74,238.284z"/>
						<path style="fill:#38518A;" d="M311.879,233.379c-1.931,0-1.714,2.993,0.209,2.993
							C314.02,236.371,313.802,233.379,311.879,233.379z"/>
					</g>
				</g>
				<g>
					<g>
						
							<ellipse transform="matrix(0.7071 -0.7071 0.7071 0.7071 -58.7127 241.4129)" style="fill:#FFFFFF;" cx="262.055" cy="191.579" rx="17.581" ry="17.581"/>
					</g>
					<g>
						<path style="fill:#F3F2FC;" d="M249,179.833c-2.805,3.115-4.526,7.225-4.526,11.746c0,9.71,7.872,17.581,17.581,17.581
							c4.534,0,8.654-1.731,11.772-4.549C265.548,196.354,257.271,188.097,249,179.833z"/>
					</g>
					
						<ellipse transform="matrix(0.7071 -0.7071 0.7071 0.7071 -58.7127 241.4129)" style="fill:#96A2E6;" cx="262.055" cy="191.579" rx="10.26" ry="10.26"/>
					<path style="fill:#ACB5E6;" d="M269.95,198.13c1.476-1.777,2.365-4.06,2.365-6.551c0-5.667-4.594-10.26-10.261-10.26
						c-2.491,0-4.774,0.889-6.551,2.365C260.319,188.499,265.135,193.314,269.95,198.13z"/>
				</g>
			</g>
		</g>
		<rect y="414.003" style="fill:#D2BFFE;" width="700" height="85.997"/>
		<g>
			<g>
				<g>
					<path style="fill:#FFFFFF;" d="M563.557,227H490.41c-0.364,0.444-8.99,8.548-13.8,12.805c-1.083,0.958-2.749-0.069-2.374-1.465
						c2.014-7.502,5.748-21.455,5.748-21.766v-15.147c0-5.758,4.668-10.426,10.426-10.426h73.147
						c5.758,0,10.426,4.668,10.426,10.426v15.147C573.984,222.332,569.316,227,563.557,227z"/>
				</g>
				<g>
					<circle style="fill:#5745A2;" cx="502.658" cy="209.429" r="4.883"/>
					<circle style="fill:#5745A2;" cx="528.404" cy="209.429" r="4.883"/>
					<circle style="fill:#5745A2;" cx="554.149" cy="209.429" r="4.883"/>
				</g>
			</g>
			<g>
				<g>
					<path style="fill:#F6F5FF;" d="M494.986,131.536h-73.057c-2.731,0-4.945-2.214-4.945-4.945V84.843
						c0-2.731,2.214-4.945,4.945-4.945h73.057c2.731,0,4.945,2.214,4.945,4.945v41.748
						C499.93,129.322,497.717,131.536,494.986,131.536z"/>
				</g>
				<g>
					<path style="fill:#FFFFFF;" d="M453.563,119.9l-35.022-33.782c-1.35-1.303-1.502-3.511-0.176-4.837
						c0.854-0.854,2.033-1.382,3.335-1.382h73.512c1.302,0,2.482,0.528,3.335,1.382c1.327,1.327,1.175,3.535-0.176,4.837
						L463.351,119.9C460.664,122.639,456.251,122.639,453.563,119.9z"/>
				</g>
				<g>
					<g>
						<circle style="fill:#FFFFFF;" cx="495.783" cy="79.525" r="15.015"/>
						<path style="fill:#5745A2;" d="M495.782,95.54c-8.83,0-16.015-7.184-16.015-16.015s7.185-16.015,16.015-16.015
							c8.831,0,16.016,7.184,16.016,16.015S504.613,95.54,495.782,95.54z M495.782,65.51c-7.728,0-14.015,6.287-14.015,14.015
							c0,7.728,6.287,14.015,14.015,14.015c7.728,0,14.016-6.287,14.016-14.015C509.798,71.797,503.511,65.51,495.782,65.51z"/>
					</g>
					<circle style="fill:#5745A2;" cx="495.783" cy="88.109" r="2.514"/>
					<path style="fill:#5745A2;" d="M494.783,82.968l-1.503-11.713c-0.177-1.382,0.799-2.647,2.182-2.824
						c1.382-0.177,2.647,0.799,2.824,2.182c0.027,0.214,0.025,0.438,0,0.642l-1.503,11.713c-0.071,0.552-0.576,0.943-1.128,0.872
						C495.19,83.78,494.84,83.412,494.783,82.968z"/>
				</g>
			</g>
		</g>
		<g>
			<path style="fill:#5745A2;" d="M318.258,430.289h63.706c4.226,0,7.652,3.426,7.652,7.652l0,0c0,4.226-3.426,7.652-7.652,7.652
				h-63.706c-4.226,0-7.652-3.426-7.652-7.652l0,0C310.606,433.715,314.032,430.289,318.258,430.289z"/>
			<g>
				<path style="fill:#F2F3F7;" d="M582.554,445.593H384.667c-6.731,0-11.822-6.089-10.632-12.713l22.132-123.117
					c0.925-5.146,5.403-8.891,10.632-8.891h195.332c6.643,0,11.711,5.938,10.668,12.498l-19.578,123.117
					C592.388,441.732,587.865,445.593,582.554,445.593z"/>
				<path style="fill:#FEFEFE;" d="M548.218,445.593h34.335c5.311,0,9.834-3.861,10.668-9.106L612.8,313.37
					c1.043-6.56-4.026-12.498-10.668-12.498H406.799c-1.002,0-1.976,0.14-2.903,0.399L548.218,445.593z"/>
				<circle style="fill:#ACB5E6;" cx="493.399" cy="373.232" r="28.233"/>
				<path style="fill:#BEC5E9;" d="M511.678,394.741c6.088-5.179,9.954-12.89,9.954-21.508c0-15.593-12.64-28.233-28.233-28.233
					c-8.619,0-16.33,3.866-21.508,9.954L511.678,394.741z"/>
			</g>
		</g>
		<path style="fill:#F6F5FF;" d="M400.84,154.99c-6.438,0-5.712,9.976,0.698,9.976C407.976,164.966,407.25,154.99,400.84,154.99z"/>
		<path style="fill:#F6F5FF;" d="M455.44,211.529c-6.438,0-5.712,9.976,0.698,9.976C462.576,221.505,461.851,211.529,455.44,211.529
			z"/>
		<path style="fill:#F6F5FF;" d="M605.027,202.483c-6.438,0-5.713,9.976,0.698,9.976
			C612.163,212.459,611.437,202.483,605.027,202.483z"/>
		<path style="fill:#F6F5FF;" d="M640.889,332.039c-6.438,0-5.712,9.976,0.698,9.976
			C648.025,342.014,647.299,332.039,640.889,332.039z"/>
		<path style="fill:#F6F5FF;" d="M168.222,216.376c-6.438,0-5.712,9.976,0.698,9.976
			C175.357,226.351,174.632,216.376,168.222,216.376z"/>
		<path style="fill:#F6F5FF;" d="M145.606,119.128c-6.438,0-5.712,9.976,0.698,9.976
			C152.742,129.104,152.016,119.128,145.606,119.128z"/>
		<path style="fill:#F6F5FF;" d="M313.608,70.343c-6.438,0-5.713,9.976,0.697,9.976C320.744,80.319,320.018,70.343,313.608,70.343z"
			/>
		<path style="fill:#F6F5FF;" d="M73.882,357.562c-6.438,0-5.713,9.976,0.697,9.976C81.018,367.538,80.292,357.562,73.882,357.562z"
			/>
		<path style="fill:#F6F5FF;" d="M80.667,273.884c-6.438,0-5.713,9.976,0.698,9.976C87.802,283.86,87.077,273.884,80.667,273.884z"
			/>
		<path style="fill:#F6F5FF;" d="M126.072,361.994c-3.219,0-2.856,4.988,0.349,4.988
			C129.64,366.982,129.277,361.994,126.072,361.994z"/>
		<path style="fill:#F6F5FF;" d="M179.381,242.454c-3.219,0-2.856,4.988,0.349,4.988
			C182.949,247.442,182.586,242.454,179.381,242.454z"/>
		<path style="fill:#F6F5FF;" d="M131.242,281.547c-3.219,0-2.856,4.988,0.349,4.988
			C134.81,286.535,134.447,281.547,131.242,281.547z"/>
		<path style="fill:#F6F5FF;" d="M154.827,153.607c-3.219,0-2.856,4.988,0.349,4.988
			C158.395,158.595,158.032,153.607,154.827,153.607z"/>
		<path style="fill:#F6F5FF;" d="M294.074,87.053c-3.219,0-2.856,4.988,0.349,4.988C297.642,92.04,297.279,87.053,294.074,87.053z"
			/>
		<path style="fill:#F6F5FF;" d="M248.843,65.406c-3.219,0-2.856,4.988,0.349,4.988C252.411,70.394,252.048,65.406,248.843,65.406z"
			/>
		<path style="fill:#F6F5FF;" d="M372.26,108.699c-3.219,0-2.856,4.988,0.349,4.988C375.828,113.687,375.465,108.699,372.26,108.699
			z"/>
		<path style="fill:#F6F5FF;" d="M382.275,175.254c-3.219,0-2.856,4.988,0.349,4.988
			C385.843,180.242,385.481,175.254,382.275,175.254z"/>
		<path style="fill:#F6F5FF;" d="M384.537,238.254c-3.219,0-2.856,4.988,0.349,4.988
			C388.105,243.242,387.742,238.254,384.537,238.254z"/>
		<path style="fill:#F6F5FF;" d="M382.275,318.055c-3.219,0-2.856,4.988,0.349,4.988
			C385.843,323.043,385.481,318.055,382.275,318.055z"/>
		<path style="fill:#F6F5FF;" d="M434.938,281.547c-3.219,0-2.856,4.988,0.349,4.988
			C438.506,286.535,438.143,281.547,434.938,281.547z"/>
		<path style="fill:#F6F5FF;" d="M470.477,202.069c-3.219,0-2.856,4.988,0.349,4.988
			C474.044,207.057,473.682,202.069,470.477,202.069z"/>
		<path style="fill:#F6F5FF;" d="M555.77,239.224c-3.219,0-2.856,4.988,0.349,4.988C559.338,244.211,558.975,239.224,555.77,239.224
			z"/>
		<path style="fill:#F6F5FF;" d="M643.002,228.562c-3.219,0-2.856,4.988,0.349,4.988C646.57,233.55,646.207,228.562,643.002,228.562
			z"/>
		<path style="fill:#F6F5FF;" d="M621.678,339.702c-3.219,0-2.856,4.988,0.349,4.988
			C625.246,344.69,624.883,339.702,621.678,339.702z"/>
		<path style="fill:#F6F5FF;" d="M616.832,380.733c-3.219,0-2.856,4.988,0.349,4.988C620.4,385.721,620.037,380.733,616.832,380.733
			z"/>
		<path style="fill:#F6F5FF;" d="M410.06,208.208c-3.219,0-2.856,4.988,0.349,4.988C413.628,213.196,413.266,208.208,410.06,208.208
			z"/>
		<path style="fill:#F6F5FF;" d="M545.178,121.004c-1.931,0-1.714,2.993,0.209,2.993
			C547.319,123.997,547.101,121.004,545.178,121.004z"/>
		<path style="fill:#F6F5FF;" d="M588.794,165.589c-1.932,0-1.714,2.993,0.209,2.993
			C590.935,168.582,590.717,165.589,588.794,165.589z"/>
		<path style="fill:#F6F5FF;" d="M643.718,194.99c-1.932,0-1.714,2.993,0.209,2.993C645.858,197.982,645.641,194.99,643.718,194.99z
			"/>
		<path style="fill:#F6F5FF;" d="M647.918,299.022c-1.932,0-1.714,2.993,0.209,2.993
			C650.058,302.015,649.841,299.022,647.918,299.022z"/>
		<path style="fill:#F6F5FF;" d="M638.871,370.746c-1.931,0-1.714,2.993,0.209,2.993
			C641.012,373.739,640.794,370.746,638.871,370.746z"/>
		<path style="fill:#F6F5FF;" d="M444.054,253.791c-1.932,0-1.714,2.993,0.209,2.993
			C446.194,256.783,445.977,253.791,444.054,253.791z"/>
		<path style="fill:#F6F5FF;" d="M469.577,163.974c-1.931,0-1.714,2.993,0.209,2.993C471.718,166.967,471.5,163.974,469.577,163.974
			z"/>
		<path style="fill:#F6F5FF;" d="M425.638,183.359c-1.931,0-1.714,2.993,0.209,2.993
			C427.779,186.352,427.561,183.359,425.638,183.359z"/>
		<path style="fill:#F6F5FF;" d="M397.53,129.081c-1.931,0-1.714,2.993,0.209,2.993C399.671,132.074,399.453,129.081,397.53,129.081
			z"/>
		<path style="fill:#F6F5FF;" d="M375.561,144.912c-1.931,0-1.714,2.993,0.209,2.993
			C377.701,147.905,377.484,144.912,375.561,144.912z"/>
		<path style="fill:#F6F5FF;" d="M347.129,62.527c-1.931,0-1.714,2.993,0.209,2.993C349.27,65.519,349.052,62.527,347.129,62.527z"
			/>
		<path style="fill:#F6F5FF;" d="M335.822,82.558c-1.931,0-1.714,2.993,0.209,2.993C337.962,85.55,337.745,82.558,335.822,82.558z"
			/>
		<path style="fill:#F6F5FF;" d="M273.144,36.68c-1.931,0-1.714,2.993,0.209,2.993C275.285,39.673,275.067,36.68,273.144,36.68z"/>
		<path style="fill:#F6F5FF;" d="M180.743,88.696c-1.932,0-1.714,2.993,0.209,2.993C182.883,91.689,182.666,88.696,180.743,88.696z"
			/>
		<path style="fill:#F6F5FF;" d="M124.204,145.882c-1.932,0-1.714,2.993,0.209,2.993
			C126.344,148.874,126.127,145.882,124.204,145.882z"/>
		<path style="fill:#F6F5FF;" d="M159.742,192.405c-1.931,0-1.714,2.993,0.209,2.993
			C161.883,195.398,161.666,192.405,159.742,192.405z"/>
		<path style="fill:#F6F5FF;" d="M81.88,182.713c-1.931,0-1.714,2.993,0.209,2.993C84.021,185.706,83.803,182.713,81.88,182.713z"/>
		<path style="fill:#F6F5FF;" d="M93.511,223.421c-1.932,0-1.714,2.993,0.209,2.993C95.652,226.414,95.434,223.421,93.511,223.421z"
			/>
		<path style="fill:#F6F5FF;" d="M54.095,272.852c-1.931,0-1.714,2.993,0.209,2.993C56.236,275.845,56.018,272.852,54.095,272.852z"
			/>
		<path style="fill:#F6F5FF;" d="M105.788,293.853c-1.931,0-1.714,2.993,0.209,2.993
			C107.929,296.845,107.711,293.853,105.788,293.853z"/>
		<path style="fill:#F6F5FF;" d="M46.664,331.653c-1.931,0-1.714,2.993,0.209,2.993C48.805,334.646,48.587,331.653,46.664,331.653z"
			/>
		<path style="fill:#F6F5FF;" d="M94.48,330.684c-1.931,0-1.714,2.993,0.209,2.993C96.621,333.677,96.403,330.684,94.48,330.684z"/>
		<path style="fill:#F6F5FF;" d="M147.789,311.299c-1.931,0-1.714,2.993,0.209,2.993
			C149.929,314.292,149.712,311.299,147.789,311.299z"/>
		<path style="fill:#F6F5FF;" d="M105.788,364.284c-1.931,0-1.714,2.993,0.209,2.993
			C107.929,367.277,107.711,364.284,105.788,364.284z"/>
		<path style="fill:#F6F5FF;" d="M61.526,381.408c-1.931,0-1.714,2.993,0.209,2.993C63.667,384.4,63.449,381.408,61.526,381.408z"/>
		<path style="fill:#F6F5FF;" d="M177.835,268.652c-1.932,0-1.714,2.993,0.209,2.993
			C179.976,271.645,179.758,268.652,177.835,268.652z"/>
		<path style="fill:#F6F5FF;" d="M184.297,204.682c-1.932,0-1.714,2.993,0.209,2.993
			C186.437,207.675,186.22,204.682,184.297,204.682z"/>
		<path style="fill:#F6F5FF;" d="M134.542,200.805c-1.931,0-1.714,2.993,0.209,2.993
			C136.683,203.798,136.465,200.805,134.542,200.805z"/>
		<path style="fill:#F6F5FF;" d="M365.545,269.298c-1.932,0-1.714,2.993,0.209,2.993
			C367.686,272.291,367.468,269.298,365.545,269.298z"/>
		<path style="fill:#F6F5FF;" d="M376.207,286.099c-1.931,0-1.714,2.993,0.209,2.993
			C378.348,289.091,378.13,286.099,376.207,286.099z"/>
		<path style="fill:#F6F5FF;" d="M363.93,221.482c-1.931,0-1.714,2.993,0.209,2.993C366.07,224.475,365.853,221.482,363.93,221.482z
			"/>
		<path style="fill:#F6F5FF;" d="M516.424,290.299c-1.932,0-1.714,2.993,0.209,2.993
			C518.565,293.291,518.347,290.299,516.424,290.299z"/>
		<path style="fill:#F6F5FF;" d="M533.87,266.714c-1.931,0-1.714,2.993,0.209,2.993C536.011,269.707,535.793,266.714,533.87,266.714
			z"/>
		<path style="fill:#F6F5FF;" d="M614.317,356.853c-1.932,0-1.714,2.993,0.209,2.993
			C616.458,359.846,616.24,356.853,614.317,356.853z"/>
		<g>
			<path style="fill:#FFAA94;" d="M291.007,435.61c9.807-4.468,21.255-5.218,31.562-2.069s19.38,10.169,25.016,19.355
				c0.861,1.403,1.661,3.134,0.976,4.631c-0.445,0.973-1.448,1.598-2.487,1.853c-1.039,0.255-2.126,0.193-3.194,0.129
				c-3.263-0.195-6.526-0.391-9.789-0.586c-14.636-0.876-31.043-2.15-45.679-3.027c-0.774-0.046-0.964-2.089-0.816-3.045
				c0.543-3.516,1.086-7.031,1.629-10.547c0.43-2.78,1.164-5.989,3.711-7.183"/>
			<path style="fill:#7660DB;" d="M181.03,291.494c-23.549,35.043-41.6,73.772-53.293,114.341
				c-1.41,4.891-2.725,10.142-1.176,14.991c1.726,5.404,6.647,9.125,11.616,11.863c14.403,7.937,31.056,10.549,47.352,12.762
				c33.891,4.603,67.927,6.709,101.885,10.443c1.584-7.236,3.168-14.472,4.752-21.708c-33.565-13.251-68.369-25.5-103.643-33.097
				c1.592,0.343,11.869-21.466,13.052-23.769c4.325-8.423,8.459-16.942,12.589-25.462c5.049-10.414,10.819-20.58,14.278-31.679
				c3.11-9.978,5.044-24.266-1.417-33.497c-4.682-6.69-12.886-11.159-20.829-12.433c-6.451-1.035-12.022,0.811-16.474,5.596
				C186.49,283.318,183.662,287.577,181.03,291.494z"/>
			<path style="fill:#5745A2;" d="M235.618,445.716c-13.037-3.319-26.233-5.98-39.267-9.31
				c-13.813-3.529-32.734-7.293-41.953-19.375c-10.404-13.635-4.956-35.46,1.064-49.755c8.04-19.091,45.299-79.107,49.125-93.219
				c-5.771-0.503-10.789,1.406-14.867,5.788c-3.231,3.473-6.059,7.731-8.691,11.648c-23.549,35.043-41.6,73.772-53.293,114.341
				c-1.41,4.891-2.725,10.142-1.176,14.991c1.726,5.404,6.647,9.125,11.616,11.863c14.403,7.937,31.056,10.549,47.352,12.762
				c23.903,3.247,47.879,5.252,71.848,7.461C250.22,450.219,243.039,447.605,235.618,445.716z"/>
			<path style="fill:#927AFF;" d="M191.305,397.436c2.579-5.111,9.739-19.084,10.268-20.115c4.325-8.423,8.459-16.942,12.589-25.462
				c5.049-10.414,10.819-20.58,14.278-31.679c3.11-9.978,5.044-24.266-1.417-33.497c-0.529-0.757-1.11-1.48-1.724-2.179
				c0.191,13.793-1.724,22.913-6.039,36.101C212.034,342.684,195.459,374.434,191.305,397.436z"/>
			<path style="fill:#927AFF;" d="M188.793,401.172c-6.062-1.12-12.091-1.826-18.248-2.031c4.561,4.895,10.38,8.481,16.501,11.181
				c6.691,2.952,13.834,4.887,20.726,7.199c22.387,7.511,44.044,17.197,64.57,28.872c4.808,2.734,8.927,5.275,12.781,9.257
				c0.763,0.082,1.526,0.161,2.289,0.245c1.584-7.236,3.168-14.472,4.752-21.708c-23.057-9.102-46.376-17.614-70.181-24.56
				C211.092,406.448,200.022,403.247,188.793,401.172z"/>
		</g>
		<g>
			<path style="fill:#F6F5FF;" d="M97.668,440.025H85.82c-5.494,0-9.964-4.471-9.964-9.965V403.9c0-5.494,4.47-9.965,9.964-9.965
				h11.592c1.933,0,3.5,1.567,3.5,3.5c0,1.933-1.567,3.5-3.5,3.5H85.82c-1.635,0-2.964,1.33-2.964,2.965v26.16
				c0,1.635,1.33,2.965,2.964,2.965h11.848c1.933,0,3.5,1.567,3.5,3.5C101.168,438.458,99.601,440.025,97.668,440.025z"/>
			<g>
				<path style="fill:#DFDDF0;" d="M88.294,400.935h9.118c1.933,0,3.5-1.567,3.5-3.5c0-1.933-1.567-3.5-3.5-3.5h-9.268
					C88.195,396.269,88.245,398.602,88.294,400.935z"/>
			</g>
			<g>
				<path style="fill:#DFDDF0;" d="M97.668,433.025h-8.78c0.033,2.333,0.065,4.667,0.09,7h8.69c1.933,0,3.5-1.567,3.5-3.5
					C101.168,434.593,99.601,433.025,97.668,433.025z"/>
			</g>
			<g>
				<g>
					<path style="fill:#FFFFFF;" d="M93.526,382.026v64.918c0,2.058,11.371,3.726,25.399,3.726s25.399-1.668,25.399-3.726v-64.918
						H93.526z"/>
				</g>
				<g>
					<path style="fill:#F6F5FF;" d="M124.399,422.685c-9.885-12.176-17.133-25.691-19.818-40.659H93.526v64.918
						c0,2.058,11.371,3.726,25.399,3.726s25.399-1.668,25.399-3.726v-5.742C136.806,436.222,130.141,429.759,124.399,422.685z"/>
				</g>
				<ellipse style="fill:#202960;" cx="118.925" cy="382.026" rx="25.399" ry="3.726"/>
			</g>
		</g>
	</g>
</g>
</svg>
